<?xml version="1.0" encoding="UTF-8"?>
<svg xmlns="http://www.w3.org/2000/svg" width="40" height="39" viewBox="0 0 40 39" fill="none">
  <path d="M39.9841 37.283C39.9841 37.6215 39.893 37.8949 39.7107 38.1033C39.5544 38.3376 39.3591 38.4809 39.1248 38.533H1.70288C1.44246 38.533 1.20809 38.3897 0.999756 38.1033C0.817464 37.8429 0.726318 37.5955 0.726318 37.3611C0.726318 37.0486 0.804443 36.8012 0.960693 36.6189C1.11694 36.4106 1.36434 36.2804 1.70288 36.2283H5.17944V19.9783C5.1534 19.6918 5.23153 19.4314 5.41382 19.197C5.59611 18.9626 5.83049 18.8324 6.11694 18.8064H12.1326C12.4451 18.8324 12.6925 18.9626 12.8748 19.197C13.0831 19.4054 13.1742 19.6658 13.1482 19.9783V36.1501H17.3669V10.9158C17.3669 10.6293 17.4451 10.3689 17.6013 10.1345C17.7836 9.90015 18.031 9.78296 18.3435 9.78296H24.3201C24.6326 9.78296 24.88 9.90015 25.0623 10.1345C25.2706 10.3429 25.3617 10.6033 25.3357 10.9158V36.1501H29.0857V1.9314C29.0597 1.64494 29.1378 1.38452 29.3201 1.15015C29.5024 0.915771 29.7367 0.785563 30.0232 0.759521H36.0388C36.3253 0.785563 36.5597 0.915771 36.7419 1.15015C36.9503 1.35848 37.0544 1.6189 37.0544 1.9314V36.1111H39.0466C39.4373 36.1111 39.6847 36.2413 39.7888 36.5017C39.919 36.7621 39.9841 37.0225 39.9841 37.283ZM35.531 2.32202H30.5701V36.1111H35.531V2.32202ZM23.5779 11.3064H19.0857V36.1111H23.5779V11.3064ZM11.4294 20.3298H6.74194V36.1111H11.4294V20.3298Z" fill="#4E4E6F"></path>
</svg>
