<?xml version="1.0" encoding="UTF-8"?>
<svg xmlns="http://www.w3.org/2000/svg" width="41" height="41" viewBox="0 0 41 41" fill="none">
  <path d="M40.1328 37.1611C40.4974 37.4997 40.6667 37.8903 40.6406 38.333C40.6406 38.8018 40.4453 39.2054 40.0547 39.5439C39.6901 39.9085 39.2865 40.0908 38.8438 40.0908C38.401 40.0908 37.9974 39.9085 37.6328 39.5439L34.8594 36.7705L32.8281 39.8564C32.776 39.9085 32.724 39.9476 32.6719 39.9736C32.6198 40.0257 32.5417 40.0518 32.4375 40.0518C32.3854 40.0518 32.3594 40.0518 32.3594 40.0518C32.2552 40.0518 32.1641 40.0257 32.0859 39.9736C32.0339 39.9215 31.9818 39.8434 31.9297 39.7393L27.6328 27.7471C27.6328 27.6429 27.6328 27.5518 27.6328 27.4736C27.6589 27.3695 27.724 27.2913 27.8281 27.2393C27.8802 27.1872 27.9453 27.1481 28.0234 27.1221C28.1276 27.096 28.2318 27.109 28.3359 27.1611L40.3281 31.458C40.4323 31.5101 40.5104 31.5622 40.5625 31.6143C40.6146 31.6663 40.6406 31.7445 40.6406 31.8486C40.6406 31.9528 40.6276 32.057 40.6016 32.1611C40.6016 32.2393 40.5495 32.3044 40.4453 32.3564L37.3594 34.3486L40.1328 37.1611ZM25.6406 26.0674C25.6406 26.4059 25.5104 26.6924 25.25 26.9268C25.0156 27.1351 24.7422 27.2393 24.4297 27.2393H6.85156C6.48698 27.2393 6.1875 27.1351 5.95312 26.9268C5.74479 26.6924 5.64062 26.4059 5.64062 26.0674C5.64062 25.7028 5.74479 25.4033 5.95312 25.1689C6.1875 24.9085 6.48698 24.8044 6.85156 24.8564H24.4297C24.7943 24.8564 25.0807 24.9736 25.2891 25.208C25.5234 25.4163 25.6406 25.7028 25.6406 26.0674ZM6.65625 30.833H18.6484C18.9349 30.833 19.1693 30.9632 19.3516 31.2236C19.5339 31.484 19.625 31.7575 19.625 32.0439C19.625 32.3564 19.5339 32.6429 19.3516 32.9033C19.1693 33.1377 18.9349 33.2549 18.6484 33.2549H6.65625C6.34375 33.2549 6.09635 33.1377 5.91406 32.9033C5.73177 32.6429 5.64062 32.3564 5.64062 32.0439C5.64062 31.7575 5.73177 31.484 5.91406 31.2236C6.09635 30.9632 6.34375 30.833 6.65625 30.833ZM27.9453 37.2393C28.1016 37.2393 28.2578 37.2262 28.4141 37.2002C28.5964 37.1481 28.7396 37.096 28.8438 37.0439L29.9375 40.0518C29.8854 40.0518 29.8333 40.0518 29.7812 40.0518C29.7292 40.0518 29.6771 40.0518 29.625 40.0518H3.64844C2.78906 40.0518 2.07292 39.7653 1.5 39.1924C0.927083 38.6195 0.640625 37.9033 0.640625 37.0439V3.05957C0.640625 2.2002 0.927083 1.48405 1.5 0.911133C2.07292 0.338216 2.78906 0.0517578 3.64844 0.0517578H29.625C30.4844 0.0517578 31.2005 0.338216 31.7734 0.911133C32.3464 1.48405 32.6328 2.2002 32.6328 3.05957V26.458L29.9375 25.4424V4.73926C29.9375 4.19238 29.7422 3.72363 29.3516 3.33301C28.9609 2.94238 28.4922 2.74707 27.9453 2.74707H5.44531C4.89844 2.74707 4.42969 2.94238 4.03906 3.33301C3.64844 3.72363 3.45312 4.19238 3.45312 4.73926V35.2471C3.45312 35.7939 3.64844 36.2627 4.03906 36.6533C4.42969 37.0439 4.89844 37.2393 5.44531 37.2393H27.9453ZM22.75 8.56738C23.0885 8.56738 23.388 8.69759 23.6484 8.95801C23.9089 9.21842 24.0391 9.54395 24.0391 9.93457C24.0391 10.2992 23.9089 10.6117 23.6484 10.8721C23.388 11.1325 23.0885 11.2627 22.75 11.2627C22.3854 11.2627 22.0729 11.1325 21.8125 10.8721C21.5521 10.6117 21.4219 10.2992 21.4219 9.93457C21.4219 9.54395 21.5521 9.21842 21.8125 8.95801C22.0729 8.69759 22.3854 8.56738 22.75 8.56738ZM25.7578 5.05176C26.2526 5.05176 26.6823 5.24707 27.0469 5.6377C27.4375 6.00228 27.6068 6.44499 27.5547 6.96582V17.9424C27.5547 18.4372 27.3724 18.8669 27.0078 19.2314C26.6693 19.57 26.2526 19.7393 25.7578 19.7393H7.4375C6.94271 19.7393 6.51302 19.57 6.14844 19.2314C5.8099 18.8669 5.64062 18.4372 5.64062 17.9424V6.96582C5.64062 6.44499 5.8099 6.00228 6.14844 5.6377C6.51302 5.24707 6.94271 5.05176 7.4375 5.05176H25.7578ZM25.7578 16.9658H25.8359V16.458L22.2422 14.0361L18.5312 16.8486C18.4271 16.9007 18.3229 16.9528 18.2188 17.0049C18.1406 17.0309 18.0495 17.0439 17.9453 17.0439C17.8411 17.0439 17.737 17.0179 17.6328 16.9658C17.5286 16.9137 17.4375 16.8486 17.3594 16.7705L12.3594 11.8486L7.55469 16.1455C7.55469 16.1976 7.52865 16.2367 7.47656 16.2627C7.45052 16.2627 7.4375 16.2627 7.4375 16.2627V16.9658C7.4375 17.2002 7.52865 17.4085 7.71094 17.5908C7.89323 17.7731 8.10156 17.8643 8.33594 17.8643H24.8594C25.0938 17.8643 25.3021 17.7731 25.4844 17.5908C25.6667 17.4085 25.7578 17.2002 25.7578 16.9658ZM25.7578 14.2705H25.6406V7.86426C25.6406 7.60384 25.5495 7.39551 25.3672 7.23926C25.2109 7.05697 25.0026 6.96582 24.7422 6.96582H8.25781C7.9974 6.96582 7.77604 7.05697 7.59375 7.23926C7.4375 7.39551 7.35938 7.60384 7.35938 7.86426V13.8408L11.6562 10.0518C11.8385 9.89551 12.0599 9.81738 12.3203 9.81738C12.5807 9.81738 12.7891 9.89551 12.9453 10.0518L17.9453 14.9346L21.5391 12.2393C21.7474 12.1351 21.9427 12.083 22.125 12.083C22.3073 12.083 22.4766 12.1351 22.6328 12.2393L25.7578 14.2705Z" fill="#4E4E6F"></path>
</svg>
