<?xml version="1.0" encoding="UTF-8"?>
<svg xmlns="http://www.w3.org/2000/svg" width="41" height="41" viewBox="0 0 41 41" fill="none">
  <path d="M28.6752 39.9033C28.4669 40.4502 28.0763 40.7367 27.5034 40.7627C26.9565 40.8148 26.5789 40.5674 26.3705 40.0205L19.8862 23.6143C19.782 23.458 19.6648 23.3148 19.5346 23.1846C19.4304 23.0544 19.2742 22.9632 19.0659 22.9111L0.979919 17.5205C0.433044 17.3643 0.133565 16.9867 0.0814819 16.3877C0.0554403 15.7887 0.315857 15.3981 0.862732 15.2158L38.3627 0.918945C38.8315 0.710612 39.2481 0.788737 39.6127 1.15332C40.0034 1.49186 40.1205 1.90853 39.9643 2.40332L28.6752 39.9033ZM27.269 34.0049L34.9643 8.61426L22.5815 22.0908L27.269 34.0049ZM32.894 6.30957L7.07367 16.1143L20.2768 20.0986L32.894 6.30957Z" fill="#4E4E6F"></path>
</svg>
