<?xml version="1.0" encoding="UTF-8"?>
<svg xmlns="http://www.w3.org/2000/svg" width="41" height="41" viewBox="0 0 41 41" fill="none">
  <path d="M30.394 12.0439C30.7846 12.4606 30.9799 12.9554 30.9799 13.5283C30.9799 14.1012 30.7846 14.609 30.394 15.0518L5.78461 39.5439C5.39398 39.9606 4.91221 40.1689 4.33929 40.1689C3.76638 40.1689 3.28461 39.9606 2.89398 39.5439L0.667419 37.3564C0.276794 36.9658 0.0814819 36.484 0.0814819 35.9111C0.0814819 35.3382 0.276794 34.8564 0.667419 34.4658L25.2768 9.85645C25.6674 9.46582 26.1492 9.27051 26.7221 9.27051C27.295 9.27051 27.7768 9.46582 28.1674 9.85645L30.394 12.0439ZM27.6987 14.2705C27.881 14.0622 27.9721 13.8148 27.9721 13.5283C27.9981 13.2158 27.933 12.9945 27.7768 12.8643L27.5815 12.6689C27.3731 12.4606 27.1388 12.3564 26.8784 12.3564C26.6179 12.3564 26.3836 12.4606 26.1752 12.6689L23.2846 15.4424C23.0763 15.6507 22.9721 15.8851 22.9721 16.1455C22.9721 16.4059 23.0763 16.6403 23.2846 16.8486L23.4799 17.0439C23.6883 17.2523 23.9226 17.3564 24.183 17.3564C24.4435 17.3564 24.6778 17.2523 24.8862 17.0439L27.6987 14.2705ZM35.6674 22.4346C35.8758 22.6429 35.9799 22.9163 35.9799 23.2549C35.9799 23.5934 35.8758 23.8929 35.6674 24.1533C35.433 24.4137 35.1466 24.5439 34.808 24.5439C34.4955 24.5439 34.2221 24.4137 33.9877 24.1533L32.5815 22.7471C32.3211 22.5127 32.1909 22.2393 32.1909 21.9268C32.1909 21.5882 32.3211 21.3018 32.5815 21.0674C32.8419 20.807 33.1284 20.6768 33.4409 20.6768C33.7534 20.6768 34.0398 20.807 34.3002 21.0674L35.6674 22.4346ZM38.8705 13.0596C39.2351 13.0596 39.5216 13.1898 39.7299 13.4502C39.9643 13.6846 40.0815 13.958 40.0815 14.2705C40.0815 14.609 39.9643 14.8955 39.7299 15.1299C39.5216 15.3382 39.2351 15.4424 38.8705 15.4424H36.9955C36.631 15.4424 36.3315 15.3382 36.0971 15.1299C35.8888 14.8955 35.7846 14.609 35.7846 14.2705C35.7846 13.9059 35.8888 13.6195 36.0971 13.4111C36.3315 13.1768 36.631 13.0596 36.9955 13.0596H38.8705ZM18.9877 5.83301C19.2221 6.09342 19.3393 6.37988 19.3393 6.69238C19.3393 7.00488 19.2221 7.29134 18.9877 7.55176C18.7273 7.81217 18.4409 7.94238 18.1284 7.94238C17.8159 7.94238 17.5294 7.81217 17.269 7.55176L15.8627 6.2627C15.6284 6.00228 15.5112 5.71582 15.5112 5.40332C15.5112 5.09082 15.6284 4.80436 15.8627 4.54395C16.1231 4.30957 16.4096 4.19238 16.7221 4.19238C17.0346 4.19238 17.3211 4.30957 17.5815 4.54395L18.9877 5.83301ZM35.9799 4.15332C36.2403 4.41374 36.3705 4.71322 36.3705 5.05176C36.3705 5.3903 36.2403 5.65072 35.9799 5.83301L34.6909 7.16113C34.4304 7.39551 34.144 7.5127 33.8315 7.5127C33.519 7.5127 33.2325 7.39551 32.9721 7.16113C32.7377 6.90072 32.6205 6.61426 32.6205 6.30176C32.6205 5.98926 32.7377 5.7028 32.9721 5.44238L34.3002 4.15332C34.5346 3.8929 34.808 3.7627 35.1205 3.7627C35.433 3.7627 35.7195 3.8929 35.9799 4.15332ZM26.9955 3.1377C26.9955 3.50228 26.8784 3.80176 26.644 4.03613C26.4096 4.24447 26.1231 4.34863 25.7846 4.34863C25.42 4.34863 25.1205 4.24447 24.8862 4.03613C24.6778 3.80176 24.5737 3.50228 24.5737 3.1377V1.2627C24.5737 0.898112 24.6778 0.611654 24.8862 0.40332C25.1205 0.168945 25.42 0.0517578 25.7846 0.0517578C26.1231 0.0517578 26.4096 0.168945 26.644 0.40332C26.8784 0.611654 26.9955 0.898112 26.9955 1.2627V3.1377Z" fill="#4E4E6F"></path>
</svg>
