<?xml version="1.0" encoding="UTF-8"?>
<svg xmlns="http://www.w3.org/2000/svg" width="41" height="41" viewBox="0 0 41 41" fill="none">
  <path d="M11.4797 15.2517C11.2193 15.2517 10.9849 15.1606 10.7766 14.9783C10.5943 14.7699 10.5031 14.5356 10.5031 14.2751C10.5031 13.9887 10.5943 13.7543 10.7766 13.572C10.9849 13.3637 11.2193 13.2595 11.4797 13.2595H23.3547C23.6151 13.2595 23.8364 13.3637 24.0187 13.572C24.2271 13.7543 24.3312 13.9887 24.3312 14.2751C24.3312 14.5356 24.2271 14.7699 24.0187 14.9783C23.8364 15.1606 23.6151 15.2517 23.3547 15.2517H11.4797ZM18.2766 27.6736C18.563 27.6736 18.7974 27.7778 18.9797 27.9861C19.188 28.1684 19.2922 28.4028 19.2922 28.6892C19.2922 28.9496 19.188 29.184 18.9797 29.3923C18.7974 29.5746 18.563 29.6658 18.2766 29.6658H11.4797C11.2193 29.6658 10.9849 29.5746 10.7766 29.3923C10.5943 29.184 10.5031 28.9496 10.5031 28.6892C10.5031 28.4028 10.5943 28.1684 10.7766 27.9861C10.9849 27.7778 11.2193 27.6736 11.4797 27.6736H18.2766ZM21.0109 20.5251C21.2974 20.5251 21.5318 20.6293 21.7141 20.8376C21.9224 21.0199 22.0266 21.2413 22.0266 21.5017C22.0266 21.7882 21.9224 22.0356 21.7141 22.2439C21.5318 22.4262 21.2974 22.5173 21.0109 22.5173H8.04218C7.75572 22.5173 7.50832 22.4262 7.29999 22.2439C7.1177 22.0356 7.02655 21.7882 7.02655 21.5017C7.02655 21.2413 7.1177 21.0199 7.29999 20.8376C7.50832 20.6293 7.75572 20.5251 8.04218 20.5251H21.0109ZM8.66718 14.4314C8.66718 14.0408 8.53697 13.7283 8.27655 13.4939C8.04218 13.2335 7.72968 13.1033 7.33905 13.1033C6.97447 13.1033 6.66197 13.2335 6.40155 13.4939C6.14113 13.7283 6.01093 14.0408 6.01093 14.4314C6.01093 14.796 6.14113 15.1085 6.40155 15.3689C6.66197 15.6293 6.97447 15.7595 7.33905 15.7595C7.72968 15.7595 8.04218 15.6293 8.27655 15.3689C8.53697 15.1085 8.66718 14.796 8.66718 14.4314ZM8.66718 28.533C8.66718 28.1684 8.53697 27.8559 8.27655 27.5955C8.04218 27.335 7.72968 27.2048 7.33905 27.2048C6.97447 27.2048 6.66197 27.335 6.40155 27.5955C6.14113 27.8559 6.01093 28.1684 6.01093 28.533C6.01093 28.8975 6.14113 29.21 6.40155 29.4705C6.66197 29.7309 6.97447 29.8611 7.33905 29.8611C7.72968 29.8611 8.04218 29.7309 8.27655 29.4705C8.53697 29.21 8.66718 28.8975 8.66718 28.533ZM32.8859 20.7986C34.0318 21.033 35.0864 21.4496 36.05 22.0486C36.9875 22.6475 37.8078 23.3767 38.5109 24.2361C39.2141 25.0955 39.7739 26.072 40.1906 27.1658C40.5812 28.2335 40.7766 29.3663 40.7766 30.5642C40.7766 31.9444 40.5161 33.2465 39.9953 34.4705C39.4745 35.6684 38.7583 36.7231 37.8469 37.6345C36.9354 38.546 35.8807 39.2621 34.6828 39.783C33.4588 40.3038 32.1568 40.5642 30.7766 40.5642C30.6203 40.5642 30.4771 40.5512 30.3469 40.5251C30.2167 40.5251 30.0734 40.5251 29.9172 40.5251C29.8651 40.5251 29.8 40.5251 29.7219 40.5251C29.6698 40.5512 29.6047 40.5642 29.5266 40.5642H4.17499C3.23749 40.5642 2.4302 40.2387 1.75311 39.5876C1.10207 38.9626 0.77655 38.2074 0.77655 37.322V3.92358C0.77655 3.03817 1.10207 2.28296 1.75311 1.65796C2.4302 1.00692 3.23749 0.681396 4.17499 0.681396H25.6203L32.8859 10.2517V20.7986ZM25.8156 4.27515V9.19702H29.5656L25.8156 4.27515ZM4.17499 38.572H24.8C23.576 37.6606 22.5995 36.5147 21.8703 35.1345C21.1411 33.7283 20.7766 32.2048 20.7766 30.5642C20.7766 29.184 21.037 27.8819 21.5578 26.658C22.0786 25.46 22.7948 24.4054 23.7062 23.4939C24.6177 22.5824 25.6724 21.8663 26.8703 21.3455C28.0943 20.8246 29.3963 20.5642 30.7766 20.5642C30.8026 20.5642 30.8156 20.5642 30.8156 20.5642C30.8417 20.5642 30.8677 20.5642 30.8937 20.5642V11.1892H24.8391C24.5526 11.1892 24.3052 11.0981 24.0969 10.9158C23.9146 10.7074 23.8234 10.46 23.8234 10.1736V2.67358H4.17499C3.78436 2.67358 3.44582 2.80379 3.15936 3.06421C2.89895 3.29858 2.76874 3.58504 2.76874 3.92358V37.322C2.76874 37.6606 2.89895 37.947 3.15936 38.1814C3.44582 38.4418 3.78436 38.572 4.17499 38.572ZM30.7766 38.572C31.8703 38.572 32.912 38.3637 33.9016 37.947C34.8651 37.5304 35.7114 36.9574 36.4406 36.2283C37.1698 35.4991 37.7427 34.6528 38.1594 33.6892C38.576 32.6996 38.7844 31.658 38.7844 30.5642C38.7844 29.4705 38.576 28.4288 38.1594 27.4392C37.7427 26.4757 37.1698 25.6293 36.4406 24.9001C35.7114 24.171 34.8651 23.5981 33.9016 23.1814C32.912 22.7647 31.8703 22.5564 30.7766 22.5564C29.6828 22.5564 28.6411 22.7647 27.6516 23.1814C26.688 23.5981 25.8417 24.171 25.1125 24.9001C24.3833 25.6293 23.8104 26.4757 23.3937 27.4392C22.9771 28.4288 22.7687 29.4705 22.7687 30.5642C22.7687 31.658 22.9771 32.6996 23.3937 33.6892C23.8104 34.6528 24.3833 35.4991 25.1125 36.2283C25.8417 36.9574 26.688 37.5304 27.6516 37.947C28.6411 38.3637 29.6828 38.572 30.7766 38.572ZM34.7219 25.4861C34.826 25.434 34.9302 25.421 35.0344 25.447C35.1385 25.447 35.2427 25.4991 35.3469 25.6033C35.425 25.6814 35.4771 25.7725 35.5031 25.8767C35.5292 25.9809 35.5292 26.085 35.5031 26.1892L32.2609 37.0095C32.2088 37.1397 32.1307 37.2439 32.0266 37.322C31.9224 37.3741 31.8182 37.4132 31.7141 37.4392C31.688 37.4392 31.675 37.4392 31.675 37.4392C31.675 37.4392 31.662 37.4392 31.6359 37.4392C31.5057 37.4392 31.3885 37.4132 31.2844 37.3611C31.2062 37.283 31.1542 37.1788 31.1281 37.0486L29.2531 32.322C29.2531 32.322 29.2401 32.322 29.2141 32.322C29.2141 32.296 29.2141 32.283 29.2141 32.283L23.9406 30.7205C23.8104 30.6684 23.7062 30.6033 23.6281 30.5251C23.576 30.421 23.537 30.3038 23.5109 30.1736C23.5109 30.0434 23.537 29.9262 23.5891 29.822C23.6672 29.7179 23.7713 29.6397 23.9016 29.5876L34.7219 25.4861ZM26.5187 30.0564L29.5266 30.9548L32.3781 27.8298L26.5187 30.0564ZM31.5578 34.5095L33.3156 28.8455L30.5422 31.8533L31.5578 34.5095Z" fill="#4E4E6F"></path>
</svg>
