<?xml version="1.0" encoding="UTF-8"?>
<svg xmlns="http://www.w3.org/2000/svg" width="36" height="41" viewBox="0 0 36 41" fill="none">
  <path d="M25.1203 5.15796C25.1203 5.41838 25.0161 5.65275 24.8078 5.86108C24.6255 6.04338 24.4042 6.13452 24.1437 6.13452H7.46405C7.20363 6.13452 6.98228 6.22567 6.79999 6.40796C6.64374 6.59025 6.56561 6.79858 6.56561 7.03296V36.8767C6.56561 37.1632 6.46145 37.4106 6.25311 37.6189C6.07082 37.8012 5.83645 37.8923 5.54999 37.8923C5.28957 37.8923 5.0552 37.8012 4.84686 37.6189C4.66457 37.4106 4.57343 37.1632 4.57343 36.8767V7.03296C4.57343 6.25171 4.84686 5.57463 5.39374 5.00171C5.96665 4.42879 6.65676 4.14233 7.46405 4.14233H24.1437C24.4042 4.14233 24.6255 4.2465 24.8078 4.45483C25.0161 4.63713 25.1203 4.8715 25.1203 5.15796ZM20.9797 1.25171C20.9797 1.53817 20.8755 1.77254 20.6672 1.95483C20.4849 2.13713 20.2505 2.22827 19.9641 2.22827H3.32343C3.06301 2.22827 2.84165 2.31942 2.65936 2.50171C2.50311 2.684 2.42499 2.89233 2.42499 3.12671V33.0095C2.42499 33.2699 2.32082 33.5043 2.11249 33.7126C1.9302 33.8949 1.69582 33.9861 1.40936 33.9861C1.14895 33.9861 0.914571 33.8949 0.706238 33.7126C0.523946 33.5043 0.4328 33.2699 0.4328 33.0095V3.12671C0.4328 2.34546 0.706238 1.66838 1.25311 1.09546C1.82603 0.522542 2.51613 0.236084 3.32343 0.236084H19.9641C20.2505 0.236084 20.4849 0.340251 20.6672 0.548584C20.8755 0.730876 20.9797 0.965251 20.9797 1.25171ZM34.8469 15.6267C34.925 15.7309 34.9901 15.8481 35.0422 15.9783C35.0943 16.1085 35.1203 16.2387 35.1203 16.3689V37.6189C35.1203 38.3741 34.8469 39.0251 34.3 39.572C33.7792 40.1189 33.1411 40.3923 32.3859 40.3923H11.4094C10.6542 40.3923 10.0031 40.1189 9.45624 39.572C8.9354 39.0251 8.67499 38.3741 8.67499 37.6189V11.0564C8.67499 10.3012 8.9354 9.65015 9.45624 9.10327C10.0031 8.5564 10.6542 8.28296 11.4094 8.28296H26.9172C27.0474 8.28296 27.1646 8.309 27.2687 8.36108C27.3989 8.41317 27.5161 8.47827 27.6203 8.5564L34.8469 15.6267ZM27.6984 11.447V15.0408H31.3312L27.6984 11.447ZM32.3859 38.4001C32.5943 38.4001 32.7635 38.322 32.8937 38.1658C33.05 38.0095 33.1281 37.8272 33.1281 37.6189V17.033H26.6828C26.4224 17.033 26.188 16.9418 25.9797 16.7595C25.7713 16.5512 25.6672 16.3038 25.6672 16.0173V10.2751H11.4094C11.2271 10.2751 11.0578 10.3533 10.9016 10.5095C10.7453 10.6658 10.6672 10.8481 10.6672 11.0564V37.6189C10.6672 37.8272 10.7323 38.0095 10.8625 38.1658C11.0187 38.322 11.201 38.4001 11.4094 38.4001H32.3859ZM27.1125 20.0017C27.2948 19.8194 27.5292 19.7283 27.8156 19.7283C28.1021 19.7283 28.3495 19.8324 28.5578 20.0408C28.6359 20.1189 28.701 20.2231 28.7531 20.3533C28.8052 20.4574 28.8312 20.5746 28.8312 20.7048V24.533C28.8312 24.6371 28.8182 24.7413 28.7922 24.8455C28.7661 24.9236 28.7271 25.0017 28.675 25.0798C28.6229 25.158 28.5578 25.2361 28.4797 25.3142C28.4016 25.3663 28.3234 25.4184 28.2453 25.4705C28.1932 25.4965 28.1411 25.5225 28.0891 25.5486C28.063 25.5486 28.0239 25.5486 27.9719 25.5486C27.9458 25.5486 27.9198 25.5486 27.8937 25.5486C27.8677 25.5486 27.8417 25.5486 27.8156 25.5486H23.9094C23.7792 25.5486 23.6489 25.5225 23.5187 25.4705C23.4146 25.4184 23.3104 25.3533 23.2062 25.2751C23.1021 25.171 23.0239 25.0668 22.9719 24.9626C22.9458 24.8324 22.9328 24.7022 22.9328 24.572C22.9328 24.4158 22.9458 24.2856 22.9719 24.1814C23.0239 24.0512 23.1021 23.947 23.2062 23.8689C23.3104 23.7647 23.4146 23.6996 23.5187 23.6736C23.6489 23.6215 23.7792 23.5955 23.9094 23.5955H25.9797C25.9536 23.5694 25.9276 23.5434 25.9016 23.5173C25.8755 23.4653 25.8495 23.4262 25.8234 23.4001C25.6932 23.296 25.55 23.1918 25.3937 23.0876C25.2375 22.9835 25.0812 22.8793 24.925 22.7751C24.7687 22.697 24.5995 22.6319 24.4172 22.5798C24.2609 22.5017 24.0917 22.4366 23.9094 22.3845C23.4667 22.2543 22.9849 22.2153 22.4641 22.2673C21.9432 22.2934 21.4614 22.3975 21.0187 22.5798C20.7323 22.71 20.4588 22.8533 20.1984 23.0095C19.9641 23.1658 19.7427 23.3481 19.5344 23.5564C19.326 23.7647 19.1307 23.9861 18.9484 24.2205C18.7922 24.4548 18.662 24.7153 18.5578 25.0017C18.4276 25.2882 18.3234 25.5746 18.2453 25.8611C18.1932 26.1475 18.1672 26.447 18.1672 26.7595C18.1672 26.9158 18.1411 27.059 18.0891 27.1892C18.063 27.2934 17.9979 27.3845 17.8937 27.4626C17.7896 27.5408 17.6724 27.6059 17.5422 27.658C17.438 27.71 17.3208 27.7361 17.1906 27.7361C17.0604 27.7361 16.9302 27.71 16.8 27.658C16.6958 27.6059 16.5917 27.5408 16.4875 27.4626C16.4094 27.3585 16.3443 27.2543 16.2922 27.1501C16.2401 27.0199 16.2141 26.8897 16.2141 26.7595C16.2141 26.3168 16.2531 25.8871 16.3312 25.4705C16.4354 25.0278 16.5786 24.6111 16.7609 24.2205C16.9172 23.8298 17.1125 23.4653 17.3469 23.1267C17.5812 22.7621 17.8547 22.4366 18.1672 22.1501C18.4536 21.8637 18.7661 21.6033 19.1047 21.3689C19.4693 21.1345 19.8469 20.9392 20.2375 20.783C20.8625 20.5225 21.5135 20.3663 22.1906 20.3142C22.8677 20.2361 23.5318 20.2751 24.1828 20.4314C24.3911 20.4574 24.5995 20.5095 24.8078 20.5876C25.0422 20.6658 25.2505 20.7439 25.4328 20.822C25.6411 20.9262 25.8364 21.0304 26.0187 21.1345C26.2271 21.2387 26.4224 21.3559 26.6047 21.4861C26.6307 21.5121 26.6568 21.5382 26.6828 21.5642C26.7349 21.5903 26.787 21.6163 26.8391 21.6423V20.7048C26.8391 20.5746 26.8521 20.4444 26.8781 20.3142C26.9302 20.184 27.0083 20.0798 27.1125 20.0017ZM27.1125 26.6033C27.3208 26.421 27.5552 26.3298 27.8156 26.3298C28.1021 26.3298 28.3234 26.421 28.4797 26.6033C28.5838 26.7074 28.6489 26.8246 28.675 26.9548C28.7271 27.059 28.7531 27.1762 28.7531 27.3064C28.7531 27.7491 28.7141 28.1918 28.6359 28.6345C28.5578 29.0512 28.4276 29.4548 28.2453 29.8455C28.0891 30.2361 27.8807 30.6137 27.6203 30.9783C27.3859 31.3168 27.1255 31.6293 26.8391 31.9158C26.5526 32.2022 26.2271 32.4626 25.8625 32.697C25.5239 32.9314 25.1463 33.1267 24.7297 33.283C24.1307 33.5434 23.4927 33.7126 22.8156 33.7908C22.1385 33.8429 21.4745 33.8038 20.8234 33.6736C20.5891 33.6215 20.3677 33.5564 20.1594 33.4783C19.951 33.4001 19.7427 33.322 19.5344 33.2439C19.326 33.1658 19.1307 33.0746 18.9484 32.9705C18.7661 32.8403 18.5838 32.71 18.4016 32.5798C18.3495 32.5538 18.3104 32.5278 18.2844 32.5017C18.2583 32.4757 18.2193 32.4496 18.1672 32.4236V33.3611C18.1672 33.4913 18.1411 33.6215 18.0891 33.7517C18.037 33.8559 17.9719 33.947 17.8937 34.0251C17.7896 34.1293 17.6724 34.2074 17.5422 34.2595C17.438 34.3116 17.3208 34.3376 17.1906 34.3376C17.0344 34.3376 16.8911 34.3116 16.7609 34.2595C16.6568 34.2074 16.5526 34.1293 16.4484 34.0251C16.3703 33.947 16.3052 33.8559 16.2531 33.7517C16.2271 33.6215 16.2141 33.4913 16.2141 33.3611V29.533C16.2141 29.4288 16.2141 29.3376 16.2141 29.2595C16.2401 29.1554 16.2792 29.0642 16.3312 28.9861C16.3833 28.908 16.4484 28.8429 16.5266 28.7908C16.6047 28.7126 16.6958 28.6475 16.8 28.5955C16.826 28.5694 16.8521 28.5564 16.8781 28.5564C16.9302 28.5304 16.9823 28.5173 17.0344 28.5173C17.0604 28.5173 17.0864 28.5173 17.1125 28.5173C17.1385 28.5173 17.1646 28.5173 17.1906 28.5173H21.0969C21.2271 28.5173 21.3573 28.5434 21.4875 28.5955C21.6177 28.6475 21.7219 28.7126 21.8 28.7908C21.9042 28.8949 21.9823 29.0121 22.0344 29.1423C22.0864 29.2465 22.1125 29.3637 22.1125 29.4939C22.1125 29.6501 22.0864 29.7934 22.0344 29.9236C21.9823 30.0278 21.9042 30.1189 21.8 30.197C21.7219 30.3012 21.6177 30.3793 21.4875 30.4314C21.3573 30.4574 21.2401 30.4705 21.1359 30.4705H19.0266C19.0526 30.5225 19.0786 30.5616 19.1047 30.5876C19.1307 30.6137 19.1568 30.6397 19.1828 30.6658C19.313 30.7699 19.4562 30.8741 19.6125 30.9783C19.7687 31.0824 19.925 31.1866 20.0812 31.2908C20.2375 31.3689 20.3937 31.447 20.55 31.5251C20.7323 31.5772 20.9146 31.6293 21.0969 31.6814C21.5396 31.8116 22.0213 31.8637 22.5422 31.8376C23.063 31.7856 23.5448 31.6684 23.9875 31.4861C24.3 31.3559 24.5734 31.2126 24.8078 31.0564C25.0682 30.9001 25.2896 30.7179 25.4719 30.5095C25.6802 30.3012 25.8625 30.0798 26.0187 29.8455C26.201 29.6111 26.3443 29.3507 26.4484 29.0642C26.5786 28.7778 26.6698 28.4913 26.7219 28.2048C26.8 27.9184 26.8391 27.6189 26.8391 27.3064C26.8391 27.1762 26.8521 27.046 26.8781 26.9158C26.9302 26.7856 27.0083 26.6814 27.1125 26.6033Z" fill="#4E4E6F"></path>
</svg>
