<?xml version="1.0" encoding="UTF-8"?>
<svg xmlns="http://www.w3.org/2000/svg" width="41" height="41" viewBox="0 0 41 41" fill="none">
  <path d="M18.9294 24.2361C20.0232 24.6528 21.0518 25.1996 22.0154 25.8767C23.005 26.5278 23.8774 27.309 24.6326 28.2205C24.8149 28.4288 24.893 28.6762 24.8669 28.9626C24.8669 29.2231 24.7628 29.4444 24.5544 29.6267C24.3201 29.809 24.0597 29.8871 23.7732 29.8611C23.5128 29.835 23.2914 29.7179 23.1091 29.5095C21.9893 28.2074 20.6482 27.1918 19.0857 26.4626C17.5232 25.7335 15.8826 25.3689 14.1638 25.3689C12.5232 25.3689 10.9867 25.6814 9.55444 26.3064C8.12215 26.9314 6.87215 27.7778 5.80444 28.8455C4.73674 29.9132 3.89038 31.1632 3.26538 32.5955C2.64038 34.0278 2.32788 35.5642 2.32788 37.2048C2.32788 37.5694 2.3409 37.934 2.36694 38.2986C2.41903 38.6632 2.47111 39.0278 2.52319 39.3923C2.57528 39.6528 2.52319 39.9001 2.36694 40.1345C2.21069 40.3689 2.00236 40.4991 1.74194 40.5251C1.7159 40.5512 1.67684 40.5642 1.62476 40.5642C1.59871 40.5642 1.57267 40.5642 1.54663 40.5642C1.31226 40.5642 1.10392 40.4861 0.921631 40.3298C0.739339 40.1736 0.622152 39.9783 0.570068 39.7439C0.491943 39.3272 0.426839 38.8975 0.374756 38.4548C0.348714 38.0382 0.335693 37.6215 0.335693 37.2048C0.335693 35.7465 0.544027 34.3663 0.960693 33.0642C1.37736 31.7361 1.9633 30.5251 2.71851 29.4314C3.49976 28.3116 4.41121 27.322 5.45288 26.4626C6.49455 25.6033 7.64038 24.9132 8.89038 24.3923C7.45809 23.7153 6.28621 22.6866 5.37476 21.3064C4.4633 19.9001 4.00757 18.3507 4.00757 16.658C4.00757 15.46 4.22892 14.3403 4.67163 13.2986C5.11434 12.2569 5.72632 11.3455 6.50757 10.5642C7.28882 9.78296 8.20028 9.17098 9.24194 8.72827C10.3097 8.25952 11.4294 8.02515 12.6013 8.02515C13.7992 8.02515 14.919 8.25952 15.9607 8.72827C17.0024 9.17098 17.9138 9.78296 18.6951 10.5642C19.4763 11.3455 20.0883 12.2569 20.531 13.2986C20.9998 14.3403 21.2341 15.46 21.2341 16.658C21.2341 16.9184 21.2081 17.1788 21.156 17.4392C21.13 17.6736 21.1039 17.921 21.0779 18.1814C21.807 17.5824 22.5883 17.0616 23.4216 16.6189C24.281 16.1501 25.1664 15.7725 26.0779 15.4861C24.88 14.809 23.9034 13.8585 23.1482 12.6345C22.419 11.4106 22.0544 10.0564 22.0544 8.57202C22.0544 7.45223 22.2628 6.41056 22.6794 5.44702C23.0961 4.48348 23.669 3.63713 24.3982 2.90796C25.1274 2.17879 25.9737 1.60588 26.9373 1.18921C27.9008 0.772542 28.9425 0.564209 30.0623 0.564209C31.156 0.564209 32.1847 0.772542 33.1482 1.18921C34.1378 1.60588 34.9841 2.17879 35.6873 2.90796C36.4164 3.63713 37.0024 4.48348 37.4451 5.44702C37.8617 6.41056 38.0701 7.45223 38.0701 8.57202C38.0701 10.0304 37.7055 11.3715 36.9763 12.5955C36.2732 13.7934 35.3357 14.7309 34.1638 15.408C35.3097 15.7725 36.3774 16.2804 37.3669 16.9314C38.3826 17.5824 39.294 18.3767 40.1013 19.3142C40.2836 19.5225 40.3617 19.7699 40.3357 20.0564C40.3097 20.3168 40.1925 20.5382 39.9841 20.7205C39.7758 20.9028 39.5284 20.9809 39.2419 20.9548C38.9815 20.9288 38.7602 20.8116 38.5779 20.6033C37.5362 19.4054 36.2992 18.4809 34.8669 17.8298C33.4607 17.1788 31.9633 16.8533 30.3748 16.8533C29.0987 16.8533 27.8617 17.0356 26.6638 17.4001C25.4399 17.7908 24.3201 18.3246 23.3044 19.0017C22.2888 19.6528 21.4034 20.434 20.6482 21.3455C19.8669 22.2309 19.294 23.1944 18.9294 24.2361ZM24.0466 8.57202C24.0466 10.2126 24.6326 11.6189 25.8044 12.7908C26.9763 13.9626 28.3956 14.5486 30.0623 14.5486C31.7029 14.5486 33.1091 13.9626 34.281 12.7908C35.4529 11.6189 36.0388 10.2126 36.0388 8.57202C36.0388 6.90535 35.4529 5.48608 34.281 4.31421C33.1091 3.14233 31.7029 2.5564 30.0623 2.5564C28.3956 2.5564 26.9763 3.14233 25.8044 4.31421C24.6326 5.48608 24.0466 6.90535 24.0466 8.57202ZM18.4607 22.947C18.5128 22.8949 18.5649 22.8429 18.6169 22.7908C18.6951 22.7126 18.7732 22.6345 18.8513 22.5564C18.7732 22.6345 18.6951 22.7126 18.6169 22.7908C18.5649 22.8429 18.5128 22.8949 18.4607 22.947ZM19.7498 21.4236C19.7758 21.3975 19.8018 21.3715 19.8279 21.3455C19.8539 21.2934 19.8669 21.2543 19.8669 21.2283C19.8669 21.2543 19.8539 21.2934 19.8279 21.3455C19.8018 21.3715 19.7758 21.3975 19.7498 21.4236ZM19.1638 22.2048C19.2159 22.1528 19.255 22.1007 19.281 22.0486C19.3331 21.9965 19.3852 21.9444 19.4373 21.8923C19.3852 21.9444 19.3331 21.9965 19.281 22.0486C19.255 22.1007 19.2159 22.1528 19.1638 22.2048ZM12.6013 23.2595C14.4242 23.2595 15.9867 22.6215 17.2888 21.3455C18.5909 20.0434 19.2419 18.4809 19.2419 16.658C19.2419 14.835 18.5909 13.2856 17.2888 12.0095C15.9867 10.7074 14.4242 10.0564 12.6013 10.0564C10.7784 10.0564 9.2159 10.7074 7.91382 12.0095C6.63778 13.2856 5.99976 14.835 5.99976 16.658C5.99976 18.4809 6.63778 20.0434 7.91382 21.3455C9.2159 22.6215 10.7784 23.2595 12.6013 23.2595ZM18.1873 23.2205C18.057 23.3246 17.9268 23.4288 17.7966 23.533C17.6664 23.6111 17.5492 23.7022 17.4451 23.8064C17.5753 23.8324 17.7055 23.8715 17.8357 23.9236C17.9659 23.9496 18.0961 23.9887 18.2263 24.0408C18.0961 23.9887 17.9659 23.9496 17.8357 23.9236C17.7055 23.8715 17.5753 23.8324 17.4451 23.8064C17.5492 23.7022 17.6664 23.6111 17.7966 23.533C17.9268 23.4288 18.057 23.3246 18.1873 23.2205ZM39.3201 32.283C39.6065 32.283 39.8409 32.3871 40.0232 32.5955C40.2315 32.7778 40.3357 32.9991 40.3357 33.2595C40.3357 33.546 40.2315 33.7934 40.0232 34.0017C39.8409 34.184 39.6065 34.2751 39.3201 34.2751H34.0466V39.5486C34.0466 39.835 33.9425 40.0694 33.7341 40.2517C33.5518 40.46 33.3175 40.5642 33.031 40.5642C32.7706 40.5642 32.5362 40.46 32.3279 40.2517C32.1456 40.0694 32.0544 39.835 32.0544 39.5486V34.2751H26.7419C26.4555 34.2751 26.2081 34.184 25.9998 34.0017C25.8175 33.7934 25.7263 33.546 25.7263 33.2595C25.7263 32.9991 25.8175 32.7778 25.9998 32.5955C26.2081 32.3871 26.4555 32.283 26.7419 32.283H32.0544V26.9705C32.0544 26.684 32.1456 26.4496 32.3279 26.2673C32.5362 26.059 32.7706 25.9548 33.031 25.9548C33.3175 25.9548 33.5518 26.059 33.7341 26.2673C33.9425 26.4496 34.0466 26.684 34.0466 26.9705V32.283H39.3201Z" fill="#4E4E6F"></path>
</svg>
