<?xml version="1.0" encoding="UTF-8"?>
<svg xmlns="http://www.w3.org/2000/svg" width="35" height="41" viewBox="0 0 35 41" fill="none">
  <path d="M34.6328 11.7002C34.6328 12.8721 34.6328 14.109 34.6328 15.4111C34.6328 16.7132 34.5807 18.0413 34.4766 19.3955C34.3984 20.7236 34.2292 22.0778 33.9688 23.458C33.7083 24.8382 33.3307 26.1924 32.8359 27.5205C32.3411 28.9007 31.6901 30.2288 30.8828 31.5049C30.0755 32.7809 29.125 33.9528 28.0312 35.0205C26.8333 36.2184 25.4401 37.2861 23.8516 38.2236C22.2891 39.1611 20.5573 39.9554 18.6562 40.6064C18.6042 40.6064 18.526 40.6195 18.4219 40.6455C18.3438 40.6715 18.2786 40.6846 18.2266 40.6846C18.0964 40.7367 17.9271 40.7627 17.7188 40.7627C17.5365 40.7627 17.3411 40.7367 17.1328 40.6846C17.0807 40.6846 17.0156 40.6715 16.9375 40.6455C16.8594 40.6195 16.7943 40.6064 16.7422 40.6064C14.7891 39.9554 13.0182 39.1611 11.4297 38.2236C9.84115 37.2861 8.44792 36.2184 7.25 35.0205C6.18229 33.9528 5.23177 32.7809 4.39844 31.5049C3.59115 30.2288 2.9401 28.9007 2.44531 27.5205C1.95052 26.1924 1.57292 24.8382 1.3125 23.458C1.05208 22.0778 0.869792 20.7236 0.765625 19.3955C0.661458 18.0413 0.609375 16.7132 0.609375 15.4111C0.609375 14.109 0.622396 12.8721 0.648438 11.7002V11.583C0.648438 11.4528 0.648438 11.2705 0.648438 11.0361C0.648438 10.8018 0.648438 10.5934 0.648438 10.4111C0.648438 9.31738 1.03906 8.36686 1.82031 7.55957C2.6276 6.75228 3.60417 6.29655 4.75 6.19238C7.04167 6.08822 9.09896 5.65853 10.9219 4.90332C12.7708 4.14811 14.4375 3.0153 15.9219 1.50488C16.4427 1.06217 17.0286 0.84082 17.6797 0.84082C18.3568 0.84082 18.9427 1.06217 19.4375 1.50488C20.9479 2.96322 22.6146 4.06999 24.4375 4.8252C26.2604 5.5804 28.3307 6.03613 30.6484 6.19238C31.7422 6.29655 32.6797 6.75228 33.4609 7.55957C34.2422 8.36686 34.6328 9.31738 34.6328 10.4111C34.6328 10.6455 34.6328 10.8669 34.6328 11.0752C34.6328 11.2835 34.6328 11.4919 34.6328 11.7002ZM30.6484 26.7002C31.0911 25.4762 31.4297 24.2262 31.6641 22.9502C31.8984 21.6742 32.0547 20.3981 32.1328 19.1221C32.237 17.846 32.2891 16.583 32.2891 15.333C32.2891 14.083 32.276 12.8721 32.25 11.7002C32.25 11.4919 32.25 11.2835 32.25 11.0752C32.25 10.8669 32.25 10.6455 32.25 10.4111C32.25 9.94238 32.0677 9.53874 31.7031 9.2002C31.3646 8.86165 30.9479 8.66634 30.4531 8.61426C29.2552 8.56217 28.0573 8.41895 26.8594 8.18457C25.6875 7.92415 24.5417 7.55957 23.4219 7.09082C22.3802 6.64811 21.3646 6.11426 20.375 5.48926C19.4115 4.83822 18.5391 4.10905 17.7578 3.30176C17.7057 3.24967 17.6536 3.22363 17.6016 3.22363C17.5495 3.22363 17.4974 3.24967 17.4453 3.30176C16.638 4.10905 15.7396 4.83822 14.75 5.48926C13.7865 6.11426 12.7839 6.64811 11.7422 7.09082C10.6484 7.55957 9.5026 7.92415 8.30469 8.18457C7.13281 8.41895 5.94792 8.56217 4.75 8.61426C4.25521 8.61426 3.82552 8.79655 3.46094 9.16113C3.1224 9.49967 2.95312 9.91634 2.95312 10.4111C2.95312 10.6455 2.95312 10.8669 2.95312 11.0752C2.95312 11.2835 2.95312 11.4919 2.95312 11.7002C2.92708 12.8981 2.91406 14.1221 2.91406 15.3721C2.88802 16.6221 2.92708 17.8851 3.03125 19.1611C3.13542 20.4372 3.29167 21.7002 3.5 22.9502C3.73438 24.2262 4.08594 25.4762 4.55469 26.7002C5.07552 28.1064 5.72656 29.3955 6.50781 30.5674C7.28906 31.7393 8.21354 32.82 9.28125 33.8096C10.349 34.7731 11.5469 35.6325 12.875 36.3877C14.2292 37.1429 15.7135 37.82 17.3281 38.4189C17.3802 38.4189 17.4062 38.4189 17.4062 38.4189C17.4323 38.4189 17.4453 38.4189 17.4453 38.4189C17.4974 38.4189 17.5234 38.4189 17.5234 38.4189C17.5495 38.4189 17.5885 38.4189 17.6406 38.4189C17.6927 38.4189 17.7188 38.4189 17.7188 38.4189C17.7448 38.4189 17.7578 38.4189 17.7578 38.4189C19.3984 37.82 20.8958 37.1429 22.25 36.3877C23.6042 35.6325 24.8151 34.7731 25.8828 33.8096C26.9505 32.82 27.875 31.7393 28.6562 30.5674C29.4635 29.3955 30.1276 28.1064 30.6484 26.7002ZM17.6406 10.8018C19.0208 10.8018 20.3099 11.0622 21.5078 11.583C22.7057 12.1038 23.7474 12.82 24.6328 13.7314C25.5443 14.6429 26.2734 15.7106 26.8203 16.9346C27.3411 18.1325 27.6146 19.4215 27.6406 20.8018C27.6406 22.182 27.3802 23.471 26.8594 24.6689C26.3385 25.8929 25.6224 26.9606 24.7109 27.8721C23.7995 28.7835 22.7318 29.4997 21.5078 30.0205C20.3099 30.5413 19.0208 30.8018 17.6406 30.8018C16.2604 30.8018 14.9714 30.5413 13.7734 30.0205C12.5495 29.4997 11.4818 28.7835 10.5703 27.8721C9.65885 26.9606 8.94271 25.8929 8.42188 24.6689C7.90104 23.471 7.64062 22.182 7.64062 20.8018C7.64062 19.4215 7.90104 18.1325 8.42188 16.9346C8.94271 15.7106 9.65885 14.6429 10.5703 13.7314C11.4818 12.82 12.5495 12.1038 13.7734 11.583C14.9714 11.0622 16.2604 10.8018 17.6406 10.8018ZM17.6406 28.4189C18.6823 28.4189 19.6719 28.2106 20.6094 27.7939C21.5208 27.4033 22.3151 26.8695 22.9922 26.1924C23.6953 25.4893 24.2422 24.682 24.6328 23.7705C25.0495 22.833 25.2578 21.8434 25.2578 20.8018C25.2578 19.7601 25.0495 18.7705 24.6328 17.833C24.2422 16.9215 23.6953 16.1273 22.9922 15.4502C22.3151 14.7471 21.5208 14.2002 20.6094 13.8096C19.6719 13.3929 18.6823 13.1846 17.6406 13.1846C16.599 13.1846 15.6094 13.3929 14.6719 13.8096C13.7604 14.2002 12.9531 14.7471 12.25 15.4502C11.5729 16.1273 11.0391 16.9215 10.6484 17.833C10.2318 18.7705 10.0234 19.7601 10.0234 20.8018C10.0234 21.8434 10.2318 22.833 10.6484 23.7705C11.0391 24.682 11.5729 25.4893 12.25 26.1924C12.9531 26.8695 13.7604 27.4033 14.6719 27.7939C15.6094 28.2106 16.599 28.4189 17.6406 28.4189ZM20.6484 17.208C20.8307 16.9997 21.0781 16.8955 21.3906 16.8955C21.7031 16.8955 21.9505 16.9606 22.1328 17.0908C22.3932 17.3512 22.5234 17.6377 22.5234 17.9502C22.5234 18.2627 22.4323 18.5492 22.25 18.8096L16.7422 24.3174C16.4818 24.5518 16.1953 24.6689 15.8828 24.6689C15.5703 24.6689 15.2839 24.5518 15.0234 24.3174L12.9531 22.208C12.9531 22.208 12.9271 22.195 12.875 22.1689C12.849 22.1169 12.8359 22.0908 12.8359 22.0908C12.6276 21.8564 12.5234 21.57 12.5234 21.2314C12.5495 20.8669 12.6927 20.5934 12.9531 20.4111C13.1875 20.2028 13.474 20.1117 13.8125 20.1377C14.1771 20.1377 14.4505 20.2549 14.6328 20.4893L15.9219 21.8174L20.6484 17.208Z" fill="#4E4E6F"></path>
</svg>
